<?xml version="1.0" standalone="no"?>
<svg version="1.0" xmlns="http://www.w3.org/2000/svg"
 width="192.000000pt" height="192.000000pt" viewBox="0 0 192.000000 192.000000"
 preserveAspectRatio="xMidYMid meet">

<g transform="translate(0.000000,192.000000) scale(0.100000,-0.100000)"
fill="#000000" stroke="none">
<path d="M845 1680 c-297 -45 -523 -245 -595 -525 -28 -108 -28 -282 0 -390
34 -134 83 -218 185 -321 74 -75 105 -99 175 -133 129 -62 192 -76 355 -76
119 0 151 4 215 24 255 79 428 257 490 505 27 109 27 284 0 390 -80 313 -332
513 -667 530 -54 3 -125 1 -158 -4z m521 -423 l24 -28 0 -270 0 -271 -29 -29
-29 -29 -370 0 -370 0 -31 26 -31 26 0 272 c0 292 2 305 54 326 11 5 187 8
389 7 l369 -2 24 -28z"/>
</g>
</svg>
